<svg
  id="Capa_1"
  enable-background="new 0 0 512 512"
  height="512"
  viewBox="0 0 512 512"
  width="512"
  xmlns="http://www.w3.org/2000/svg"
  xmlns:xlink="http://www.w3.org/1999/xlink"
>
  <linearGradient
    id="SVGID_1_"
    gradientUnits="userSpaceOnUse"
    x1="256"
    x2="256"
    y1="481"
    y2="31"
  >
    <stop offset="0" stop-color="#8cdd50" />
    <stop offset="1" stop-color="#7cffbb" />
  </linearGradient>
  <g>
    <g>
      <path
        d="m301 136c0-8.284-6.716-15-15-15s-15 6.716-15 15 6.716 15 15 15 15-6.716 15-15zm-75-15c-8.284 0-15 6.716-15 15s6.716 15 15 15 15-6.716 15-15-6.716-15-15-15zm239.781 211.616c-6.33-34.988-36.993-61.616-73.781-61.616h-91v-15c0-8.284-6.716-15-15-15h-15v-30h15c41.355 0 75-33.645 75-75 0-22.91-10.336-43.441-26.578-57.209l22.185-22.185c5.858-5.858 5.858-15.355 0-21.213-5.857-5.858-15.355-5.858-21.213 0l-28.57 28.57c-6.617-1.915-13.598-2.963-20.824-2.963h-60c-7.226 0-14.207 1.048-20.823 2.963l-28.57-28.57c-5.857-5.858-15.355-5.858-21.213 0s-5.858 15.355 0 21.213l22.185 22.185c-16.243 13.768-26.579 34.299-26.579 57.209 0 41.355 33.645 75 75 75h15v30h-15c-8.284 0-15 6.716-15 15v15h-91c-36.788 0-67.451 26.628-73.781 61.616-26.461 6.245-46.219 30.043-46.219 58.384 0 33.084 26.916 60 60 60 8.284 0 15-6.716 15-15s-6.716-15-15-15c-16.542 0-30-13.458-30-30s13.458-30 30-30 30 13.458 30 30c0 8.284 6.716 15 15 15s15-6.716 15-15c0-27.251-18.268-50.302-43.197-57.588 5.458-18.703 22.751-32.412 43.197-32.412h31v75c0 57.897 47.103 105 105 105s105-47.103 105-105v-75h31c20.445 0 37.736 13.707 43.196 32.412-24.928 7.287-43.196 30.338-43.196 57.588 0 8.284 6.716 15 15 15s15-6.716 15-15c0-16.542 13.458-30 30-30s30 13.458 30 30-13.458 30-30 30c-8.284 0-15 6.716-15 15s6.716 15 15 15c33.084 0 60-26.916 60-60 0-28.341-19.758-52.139-46.219-58.384zm-239.781-151.616c-24.813 0-45-20.187-45-45s20.187-45 45-45h60c24.813 0 45 20.187 45 45s-20.187 45-45 45zm15 90h30v105c0 8.271-6.729 15-15 15s-15-6.729-15-15zm90 105c0 41.355-33.645 75-75 75s-75-33.645-75-75v-75h30v75c0 24.813 20.187 45 45 45s45-20.187 45-45v-75h30z"
        fill="url(#SVGID_1_)"
      />
    </g>
  </g>
</svg>
