<svg width="77" height="22" viewBox="0 0 77 22" fill="none" xmlns="http://www.w3.org/2000/svg">
<path d="M6.672 6.08C4.008 6.08 1.824 7.736 1.824 11.072C1.824 14.36 4.008 16.04 6.672 16.04C9.456 16.04 11.52 14 11.52 11.048C11.52 8.096 9.408 6.08 6.672 6.08ZM11.544 0.199999H12.696V17H11.544V14.384C10.56 16.184 8.616 17.192 6.6 17.192C3.288 17.192 0.672 15.008 0.672 11.072C0.672 7.16 3.312 4.952 6.624 4.952C8.664 4.952 10.584 5.816 11.544 7.736V0.199999ZM16.0856 5.144H17.1896L17.2376 7.256C17.9816 5.648 19.6616 5.024 21.1736 5.024C22.0616 5 22.9256 5.24 23.7176 5.72L23.1896 6.68C22.5656 6.296 21.8696 6.128 21.1736 6.128C18.9656 6.152 17.2616 7.928 17.2616 10.088V17H16.0856V5.144ZM30.9561 17.168C27.6201 17.168 24.9321 14.864 24.9321 11.096C24.9321 7.328 27.6201 4.928 30.9561 4.928C34.2921 4.928 36.9801 7.328 36.9801 11.096C36.9801 14.864 34.2921 17.168 30.9561 17.168ZM30.9561 16.016C33.6441 16.016 35.8281 14.168 35.8281 11.096C35.8281 8.024 33.6441 6.032 30.9561 6.032C28.2681 6.032 26.0841 8.024 26.0841 11.096C26.0841 14.168 28.2681 16.016 30.9561 16.016ZM48.2854 5.144H49.5574L42.3334 21.944H41.0854L43.2694 16.856L38.5174 5.144H39.7894L42.5494 12.152L43.9414 15.584L45.3094 12.128L48.2854 5.144ZM57.1798 6.08C54.5158 6.08 52.3318 7.736 52.3318 11.072C52.3318 14.36 54.5158 16.04 57.1798 16.04C59.9638 16.04 62.0278 14 62.0278 11.048C62.0278 8.096 59.9158 6.08 57.1798 6.08ZM62.0518 0.199999H63.2038V17H62.0518V14.384C61.0678 16.184 59.1238 17.192 57.1078 17.192C53.7958 17.192 51.1798 15.008 51.1798 11.072C51.1798 7.16 53.8198 4.952 57.1318 4.952C59.1718 4.952 61.0918 5.816 62.0518 7.736V0.199999ZM75.4494 6.536L74.7294 7.304C73.5294 6.248 72.3534 6.056 71.0334 6.056C69.1854 6.032 67.4094 6.728 67.4574 8.24C67.5054 9.824 69.5694 10.136 71.0574 10.4C73.1694 10.76 76.0734 11.12 75.9534 13.88C75.8814 16.496 73.1694 17.192 71.0814 17.192C68.9934 17.192 66.9294 16.4 65.8974 14.816L66.7614 14.048C67.7454 15.464 69.5214 16.064 71.1054 16.064C72.5454 16.064 74.7294 15.68 74.8014 13.808C74.8494 12.104 72.8814 11.768 70.9374 11.456C68.6334 11.072 66.3534 10.64 66.3294 8.264C66.3054 5.936 68.6334 4.928 71.0334 4.952C72.7614 4.952 74.2734 5.432 75.4494 6.536Z" fill="url(#paint0_linear_9_12)"/>
<defs>
<linearGradient id="paint0_linear_9_12" x1="39" y1="-1" x2="39" y2="23" gradientUnits="userSpaceOnUse">
<stop stop-color="#A2FFC7"/>
<stop offset="1" stop-color="#00FF75"/>
</linearGradient>
</defs>
</svg>
