<svg id="Capa_1" enable-background="new 0 0 510 510" height="512" viewBox="0 0 510 510" width="512" xmlns="http://www.w3.org/2000/svg" xmlns:xlink="http://www.w3.org/1999/xlink"><linearGradient id="lg1"><stop offset="0" stop-color="#8bc727"/><stop offset="1" stop-color="#017b4e"/></linearGradient><linearGradient id="SVGID_1_" gradientTransform="matrix(.707 .707 -.707 .707 267.552 -100.425)" gradientUnits="userSpaceOnUse" x1="238.937" x2="295.662" xlink:href="#lg1" y1="183.064" y2="189.366"/><linearGradient id="lg2"><stop offset="0" stop-color="#47a920" stop-opacity="0"/><stop offset=".2448" stop-color="#469a2a" stop-opacity=".207"/><stop offset=".4461" stop-color="#448b35" stop-opacity=".377"/><stop offset=".952" stop-color="#3f5d55" stop-opacity=".946"/><stop offset="1" stop-color="#3e5959"/></linearGradient><linearGradient id="SVGID_00000150096036465634684830000007509670555496071856_" gradientTransform="matrix(.707 .707 -.707 .707 267.552 -100.425)" gradientUnits="userSpaceOnUse" x1="251.007" x2="251.007" xlink:href="#lg2" y1="366.594" y2="319.673"/><linearGradient id="lg3"><stop offset="0" stop-color="#bbec6c"/><stop offset="1" stop-color="#81b823"/></linearGradient><linearGradient id="SVGID_00000153668860331370846550000012967873780153194139_" gradientTransform="matrix(.707 .707 -.707 .707 267.552 -100.425)" gradientUnits="userSpaceOnUse" x1="130.641" x2="390.615" xlink:href="#lg3" y1="28.115" y2="300.695"/><linearGradient id="lg4"><stop offset="0" stop-color="#47a920" stop-opacity="0"/><stop offset=".242" stop-color="#459a2a" stop-opacity=".242"/><stop offset=".7001" stop-color="#417545" stop-opacity=".7"/><stop offset="1" stop-color="#3e5959"/></linearGradient><linearGradient id="SVGID_00000034795077357265847840000010734830911547591601_" gradientTransform="matrix(.707 .707 -.707 .707 267.552 -100.425)" gradientUnits="userSpaceOnUse" x1="330.109" x2="134.735" xlink:href="#lg4" y1="78.823" y2="289.954"/><linearGradient id="SVGID_00000049200705816913283700000004611853544834284691_" gradientTransform="matrix(.707 .707 -.707 .707 267.552 -100.425)" gradientUnits="userSpaceOnUse" x1="251.011" x2="251.011" xlink:href="#lg4" y1="159.304" y2="438.45"/><linearGradient id="SVGID_00000069371575022241946470000008874621766694738075_" gradientTransform="matrix(.707 .707 -.707 .707 267.552 -100.425)" gradientUnits="userSpaceOnUse" x1="251.052" x2="251.052" xlink:href="#lg4" y1="250.566" y2="349.879"/><linearGradient id="SVGID_00000176038572747066769420000008319921308676978365_" gradientTransform="matrix(.707 .707 -.707 .707 267.552 -100.425)" gradientUnits="userSpaceOnUse" x1="251.007" x2="251.007" xlink:href="#lg4" y1="62.662" y2="358.394"/><linearGradient id="SVGID_00000136386342612111643790000003396907631555420319_" gradientTransform="matrix(.707 .707 -.707 .707 267.552 -100.425)" gradientUnits="userSpaceOnUse" x1="251.007" x2="251.007" xlink:href="#lg4" y1=".336" y2="243.222"/><linearGradient id="SVGID_00000150081967820090793440000009101607268978526359_" gradientTransform="matrix(.707 .707 -.707 .707 267.552 -100.425)" gradientUnits="userSpaceOnUse" x1="251.007" x2="251.007" xlink:href="#lg4" y1="-52.888" y2="54.57"/><linearGradient id="SVGID_00000110471564235923285400000009170028093725583494_" gradientUnits="userSpaceOnUse" x1="403.104" x2="331.597" xlink:href="#lg2" y1="281.545" y2="288.506"/><linearGradient id="SVGID_00000017515560231717910220000007193037494077996698_" gradientTransform="matrix(-.707 .707 .707 .707 155.77 -100.51)" gradientUnits="userSpaceOnUse" x1="276.771" x2="333.496" xlink:href="#lg1" y1="343.48" y2="349.782"/><linearGradient id="SVGID_00000041275270921195523110000015576164352634349493_" gradientTransform="matrix(-.707 .707 .707 .707 155.77 -100.51)" gradientUnits="userSpaceOnUse" x1="288.841" x2="288.841" xlink:href="#lg2" y1="527.01" y2="480.089"/><linearGradient id="SVGID_00000075133512484732452900000009879863403208051129_" gradientTransform="matrix(-.707 .707 .707 .707 155.77 -100.51)" gradientUnits="userSpaceOnUse" x1="168.475" x2="428.449" xlink:href="#lg3" y1="188.531" y2="461.11"/><linearGradient id="SVGID_00000037674759091799254830000005232026045509747900_" gradientTransform="matrix(-.707 .707 .707 .707 155.77 -100.51)" gradientUnits="userSpaceOnUse" x1="367.943" x2="172.569" xlink:href="#lg4" y1="239.239" y2="450.37"/><linearGradient id="SVGID_00000169535897103661048870000009029465835556655499_" gradientTransform="matrix(-.707 .707 .707 .707 155.77 -100.51)" gradientUnits="userSpaceOnUse" x1="288.845" x2="288.845" xlink:href="#lg4" y1="319.72" y2="598.866"/><linearGradient id="SVGID_00000021804308272223405800000004316457964738597783_" gradientTransform="matrix(-.707 .707 .707 .707 155.77 -100.51)" gradientUnits="userSpaceOnUse" x1="288.886" x2="288.886" xlink:href="#lg4" y1="410.982" y2="510.295"/><linearGradient id="SVGID_00000110471546369940172440000005501686568283732666_" gradientTransform="matrix(-.707 .707 .707 .707 155.77 -100.51)" gradientUnits="userSpaceOnUse" x1="288.841" x2="288.841" xlink:href="#lg4" y1="223.078" y2="518.81"/><linearGradient id="SVGID_00000114039298668662714600000014592131753843730879_" gradientTransform="matrix(-.707 .707 .707 .707 155.77 -100.51)" gradientUnits="userSpaceOnUse" x1="288.841" x2="288.841" xlink:href="#lg4" y1="160.752" y2="403.638"/><linearGradient id="SVGID_00000116214081096805042760000001969891671640321209_" gradientTransform="matrix(-.707 .707 .707 .707 155.77 -100.51)" gradientUnits="userSpaceOnUse" x1="288.841" x2="288.841" xlink:href="#lg4" y1="107.529" y2="214.986"/><g><g><path d="m434.099 69.255-257.655 257.655c-5.178 5.178-5.178 13.572 0 18.75 5.178 5.178 13.572 5.178 18.75 0l257.656-257.655c5.178-5.178 5.178-13.573 0-18.75-5.178-5.178-13.573-5.178-18.751 0z" fill="url(#SVGID_1_)"/><path d="m434.099 69.255-257.655 257.655c-5.178 5.178-5.178 13.572 0 18.75 5.178 5.178 13.572 5.178 18.75 0l257.656-257.655c5.178-5.178 5.178-13.573 0-18.75-5.178-5.178-13.573-5.178-18.751 0z" fill="url(#SVGID_00000150096036465634684830000007509670555496071856_)"/><path d="m458.45 270.924c-12.277 4.229-24.959 6.949-37.756 8.162 16.436-8.696 32.16-20.179 46.367-34.385 8.587-8.587 16.178-17.727 22.761-27.245 3.341-4.83-1.707-11.075-7.14-8.846-17.304 7.101-35.092 11.214-52.489 12.257 19.437-7.528 38.375-19.667 54.921-36.213 5.917-5.917 11.269-12.139 16.049-18.581 3.487-4.7-1.397-10.955-6.841-8.809-6.1 2.404-12.252 4.353-18.398 5.843 43.724-48.23 37.6-127.696 24.185-141.111s-92.884-19.538-141.113 24.186c1.49-6.146 3.439-12.298 5.843-18.398 2.146-5.444-4.11-10.328-8.809-6.841-6.442 4.78-12.664 10.133-18.581 16.049-16.546 16.546-28.685 35.483-36.213 54.921 1.043-17.397 5.156-35.185 12.257-52.489 2.229-5.433-4.016-10.481-8.846-7.14-9.517 6.583-18.658 14.174-27.244 22.761-14.207 14.207-25.689 29.931-34.385 46.367 1.213-12.797 3.933-25.479 8.162-37.755 1.973-5.726-4.258-10.766-9.412-7.585-11.425 7.049-22.168 15.639-31.929 25.775-61.073 63.421-60.372 164.938 1.531 227.549 63.584 64.312 167.267 64.535 231.13.672 9.166-9.166 17.008-19.154 23.531-29.725 3.182-5.159-1.852-11.392-7.581-9.419z" fill="url(#SVGID_00000153668860331370846550000012967873780153194139_)"/><path d="m442.5 310.066c9.166-9.166 17.008-19.154 23.531-29.725 3.182-5.157-1.852-11.391-7.581-9.417-12.277 4.23-24.959 6.949-37.756 8.162 16.436-8.696 32.16-20.179 46.367-34.385 8.587-8.587 16.178-17.727 22.761-27.245 3.341-4.83-1.707-11.075-7.14-8.846-17.304 7.101-35.092 11.214-52.489 12.257 19.438-7.528 38.375-19.667 54.921-36.213 5.917-5.917 11.269-12.139 16.049-18.581 3.487-4.699-1.397-10.955-6.841-8.809-6.1 2.404-12.252 4.353-18.398 5.843 43.724-48.23 37.6-127.696 24.185-141.111l-288.064 288.063c63.64 63.639 166.815 63.647 230.455.007z" fill="url(#SVGID_00000034795077357265847840000010734830911547591601_)"/><path d="m227.173 294.931h228.697c3.68-4.718 7.073-9.585 10.161-14.59 3.182-5.157-1.852-11.391-7.581-9.417-12.277 4.23-24.959 6.949-37.756 8.162 16.436-8.696 32.16-20.179 46.367-34.385 8.587-8.587 16.178-17.727 22.761-27.245 3.341-4.83-1.707-11.075-7.14-8.846-17.304 7.101-35.092 11.214-52.489 12.257 19.438-7.528 38.375-19.667 54.921-36.213 3.915-3.915 7.558-7.974 10.977-12.132v-15.66c-.577.046-1.168.164-1.769.401-6.1 2.404-12.252 4.353-18.398 5.843 8.508-9.384 15.121-19.953 20.167-30.987v-106.107h-106.107c-11.033 5.047-21.602 11.66-30.987 20.167 1.49-6.146 3.439-12.298 5.843-18.398.237-.601.356-1.192.401-1.769h-15.66c-4.158 3.418-8.217 7.062-12.132 10.977-16.546 16.546-28.685 35.483-36.213 54.921 1.043-17.397 5.156-35.185 12.257-52.489 2.229-5.433-4.016-10.481-8.846-7.14-9.517 6.583-18.658 14.174-27.245 22.761-14.207 14.207-25.689 29.931-34.385 46.367 1.213-12.797 3.933-25.479 8.162-37.756 1.973-5.726-4.257-10.765-9.412-7.585-5.007 3.09-9.874 6.493-14.595 10.176z" fill="url(#SVGID_00000049200705816913283700000004611853544834284691_)"/><path d="m179.426 126.382c-27.625 60.015-16.891 133.618 31.944 183.012 49.696 50.264 123.885 61.379 184.415 33.347z" fill="url(#SVGID_00000069371575022241946470000008874621766694738075_)"/><path d="m482.681 208.611c-17.304 7.101-35.092 11.214-52.489 12.257 19.438-7.528 38.375-19.667 54.921-36.213 5.917-5.917 11.269-12.139 16.049-18.581 3.487-4.699-1.397-10.955-6.841-8.809-6.1 2.404-12.252 4.353-18.398 5.843 43.724-48.23 37.6-127.696 24.185-141.111s-92.883-19.539-141.112 24.185c1.49-6.146 3.439-12.298 5.843-18.398 2.146-5.444-4.11-10.329-8.809-6.841-6.442 4.78-12.664 10.133-18.581 16.049-16.546 16.546-28.685 35.483-36.213 54.921 1.043-17.397 5.156-35.185 12.257-52.489 2.229-5.433-4.016-10.481-8.846-7.14-1.502 1.039-2.992 2.113-4.475 3.202v186.446h186.446c1.09-1.483 2.163-2.972 3.202-4.475 3.341-4.83-1.706-11.076-7.139-8.846z" fill="url(#SVGID_00000176038572747066769420000008319921308676978365_)"/><path d="m500.107 21.997c-12.169-12.168-78.683-18.336-126.935 13.255v113.68h113.68c31.591-48.252 25.423-114.766 13.255-126.935z" fill="url(#SVGID_00000136386342612111643790000003396907631555420319_)"/><path d="m500.107 21.997c-6.416-6.416-27.945-11.16-53.935-9.584v63.519h63.519c1.576-25.99-3.168-47.519-9.584-53.935z" fill="url(#SVGID_00000150081967820090793440000009101607268978526359_)"/></g><path d="m412.191 333.95-112.018-112.019-88.128 88.128c54.306 54.305 137.395 62.267 200.146 23.891z" fill="url(#SVGID_00000110471564235923285400000009170028093725583494_)"/><g><path d="m75.901 209.354 257.655 257.656c5.178 5.178 5.178 13.572 0 18.75-5.178 5.178-13.572 5.178-18.75 0l-257.656-257.655c-5.178-5.178-5.178-13.573 0-18.75 5.178-5.179 13.573-5.179 18.751-.001z" fill="url(#SVGID_00000017515560231717910220000007193037494077996698_)"/><path d="m75.901 209.354 257.655 257.656c5.178 5.178 5.178 13.572 0 18.75-5.178 5.178-13.572 5.178-18.75 0l-257.656-257.655c-5.178-5.178-5.178-13.573 0-18.75 5.178-5.179 13.573-5.179 18.751-.001z" fill="url(#SVGID_00000041275270921195523110000015576164352634349493_)"/><path d="m51.55 411.024c12.277 4.229 24.959 6.949 37.756 8.162-16.436-8.696-32.16-20.179-46.367-34.385-8.587-8.587-16.178-17.727-22.761-27.245-3.341-4.83 1.707-11.075 7.14-8.846 17.304 7.101 35.092 11.214 52.489 12.257-19.437-7.528-38.375-19.667-54.921-36.213-5.917-5.917-11.269-12.139-16.049-18.581-3.487-4.699 1.397-10.955 6.841-8.809 6.1 2.404 12.252 4.353 18.398 5.843-43.724-48.23-37.6-127.696-24.185-141.111s92.881-19.539 141.111 24.185c-1.49-6.146-3.439-12.298-5.843-18.398-2.146-5.444 4.11-10.328 8.809-6.841 6.442 4.78 12.665 10.133 18.581 16.049 16.546 16.546 28.685 35.483 36.213 54.921-1.043-17.397-5.156-35.185-12.257-52.489-2.229-5.433 4.016-10.481 8.846-7.14 9.517 6.583 18.658 14.174 27.244 22.76 14.207 14.207 25.689 29.931 34.385 46.367-1.213-12.797-3.933-25.479-8.162-37.755-1.973-5.726 4.258-10.766 9.412-7.585 11.425 7.049 22.168 15.639 31.929 25.775 61.073 63.421 60.372 164.938-1.531 227.549-63.584 64.312-167.267 64.535-231.13.672-9.166-9.166-17.008-19.154-23.531-29.725-3.18-5.157 1.854-11.391 7.583-9.417z" fill="url(#SVGID_00000075133512484732452900000009879863403208051129_)"/><path d="m67.5 450.166c-9.166-9.166-17.008-19.154-23.531-29.725-3.182-5.157 1.852-11.391 7.581-9.417 12.277 4.23 24.959 6.949 37.756 8.162-16.436-8.696-32.16-20.179-46.367-34.385-8.587-8.587-16.178-17.727-22.761-27.245-3.341-4.83 1.707-11.075 7.14-8.846 17.304 7.101 35.092 11.214 52.489 12.257-19.437-7.528-38.375-19.667-54.921-36.213-5.917-5.917-11.269-12.139-16.049-18.581-3.487-4.699 1.397-10.955 6.841-8.809 6.1 2.404 12.252 4.353 18.398 5.843-43.724-48.23-37.6-127.696-24.185-141.111l288.062 288.062c-63.638 63.64-166.813 63.647-230.453.008z" fill="url(#SVGID_00000037674759091799254830000005232026045509747900_)"/><path d="m282.827 435.03h-228.697c-3.68-4.718-7.073-9.585-10.161-14.59-3.182-5.157 1.852-11.391 7.581-9.417 12.277 4.23 24.959 6.949 37.756 8.162-16.436-8.696-32.16-20.179-46.367-34.385-8.587-8.587-16.178-17.727-22.761-27.245-3.341-4.83 1.707-11.075 7.14-8.846 17.304 7.101 35.092 11.214 52.489 12.257-19.437-7.528-38.375-19.667-54.921-36.213-3.915-3.915-7.558-7.974-10.977-12.132v-15.66c.577.046 1.168.164 1.769.401 6.1 2.404 12.252 4.353 18.398 5.843-8.508-9.384-15.121-19.953-20.167-30.987v-106.107h106.107c11.033 5.047 21.602 11.66 30.987 20.167-1.49-6.146-3.439-12.298-5.843-18.398-.237-.601-.356-1.192-.401-1.769h15.66c4.158 3.418 8.217 7.062 12.132 10.977 16.546 16.546 28.685 35.483 36.213 54.921-1.043-17.397-5.156-35.185-12.257-52.489-2.229-5.433 4.016-10.481 8.846-7.14 9.517 6.583 18.658 14.174 27.245 22.761 14.207 14.207 25.689 29.931 34.385 46.367-1.213-12.797-3.933-25.479-8.162-37.756-1.973-5.726 4.257-10.766 9.412-7.585 5.007 3.09 9.874 6.493 14.595 10.175z" fill="url(#SVGID_00000169535897103661048870000009029465835556655499_)"/><path d="m330.574 266.482c27.625 60.015 16.891 133.618-31.944 183.012-49.696 50.264-123.885 61.379-184.415 33.347z" fill="url(#SVGID_00000021804308272223405800000004316457964738597783_)"/><path d="m27.319 348.71c17.304 7.101 35.092 11.214 52.489 12.257-19.437-7.528-38.375-19.667-54.921-36.213-5.917-5.917-11.269-12.139-16.049-18.581-3.487-4.699 1.397-10.955 6.841-8.809 6.1 2.404 12.252 4.353 18.398 5.843-43.724-48.23-37.6-127.696-24.185-141.111s92.881-19.539 141.111 24.185c-1.49-6.146-3.439-12.298-5.843-18.398-2.146-5.444 4.11-10.329 8.809-6.841 6.442 4.78 12.664 10.133 18.581 16.049 16.546 16.546 28.685 35.483 36.213 54.921-1.043-17.397-5.156-35.185-12.257-52.489-2.229-5.433 4.016-10.481 8.846-7.14 1.502 1.039 2.992 2.113 4.475 3.202v186.446h-186.446c-1.09-1.483-2.163-2.972-3.202-4.475-3.34-4.829 1.707-11.075 7.14-8.846z" fill="url(#SVGID_00000110471546369940172440000005501686568283732666_)"/><path d="m9.893 162.097c12.169-12.169 78.683-18.337 126.935 13.255v113.68h-113.68c-31.591-48.252-25.423-114.766-13.255-126.935z" fill="url(#SVGID_00000114039298668662714600000014592131753843730879_)"/><path d="m9.893 162.097c6.416-6.416 27.945-11.16 53.935-9.584v63.519h-63.519c-1.576-25.991 3.168-47.519 9.584-53.935z" fill="url(#SVGID_00000116214081096805042760000001969891671640321209_)"/></g></g></svg>