<svg id="Orange" enable-background="new 0 0 450 450" height="512" viewBox="0 0 450 450" width="512" xmlns="http://www.w3.org/2000/svg"><g clip-rule="evenodd" fill-rule="evenodd"><path d="m210.712 108.364c13.058-17.377 26.118-34.761 39.176-52.138 3.481-4.738 6.752-4.359 9.866 0 98.02 119.388-11.473 132.848-49.042 52.138" fill="#5fbd2f"/><path d="m344.956 110.978c8.769 5.762 38.145 29.701 58.061 42.88 14.631 9.683 14.51 14.987 6.87 21.111-18.447 16.652-36.896 33.303-55.343 49.954-37.818-51.138-16.107-51.631-9.588-113.945" fill="#5fbd2f"/><path d="m331.529 82.159c21.832-6.275 24.387-10.637 24.387 12.009 9.493 37.894 2.219 54.223-15.498 84.378-29.864-13.414-60.664-25.221-90.527-38.637 16.32-47.422 36.419-44.687 81.638-57.75" fill="#70cc42"/><path d="m187.505 341.314c-22.197 3.728-61.225.925-79.742-8.564-75.348-38.613-91.472-124.2-51.188-184.064 25.135-37.351 81.711-66.117 126.66-61.206 95.176 10.401 193.975 176.35 4.27 253.834" fill="#f90"/><path d="m177.005 342.517c-23.75 1.823-47.793-.315-67.275-8.817-58.007-25.328-89.921-91.823-67.541-156.369 80.88 136.599 205.161 88.421 229.846-32.139 70.914 74.463 25.841 188.037-95.03 197.325" fill="#f08b08"/><path d="m91.791 110.126c6.881-3.549 14.486-2.519 16.984 2.297 2.503 4.816-1.049 11.597-7.93 15.145-6.879 3.549-14.483 2.519-16.985-2.297-2.499-4.816 1.053-11.597 7.931-15.145" fill="#70cc42"/><path d="m174.147 180.038c-54.773 80.777-14.699 190.475 82.49 214.607 50.08 12.435 101.175-23.15 138.498-54.277-65.023-63.617-125.599-121.395-190.622-185.012-8.627 9.688-21.741 14.991-30.366 24.682" fill="#f90"/><path d="m187.079 160.966c34.641-34.723 108.839-26.223 158.59 14.216 56.509 45.931 88.723 123.577 55.606 160.394-89.282 99.257-293.015-95.601-214.196-174.61" fill="#fffbbd"/><path d="m203.749 175.303c30.018-28.301 91.54-22.054 133.386 11.958 47.528 38.629 75.079 104.353 46.767 134.901-70.806 76.41-240.847-89.632-180.153-146.859" fill="#ffb13d"/><path d="m281.656 244.219c-2.607-9.032 2.516-17.021 11.439-17.843 8.92-.822 18.265 5.835 20.87 14.868 2.606 9.032-2.517 17.021-11.44 17.843-8.919.818-18.263-5.838-20.869-14.868" fill="#fffbbd"/><path d="m175.838 99.329c14.669.003 26.627 10.267 26.711 22.932.081 12.666-11.742 22.932-26.41 22.932-14.669 0-26.627-10.266-26.711-22.932-.081-12.665 11.742-22.932 26.41-22.932" fill="#ffb13d"/></g></svg>